<svg width="160" height="51" viewBox="0 0 160 51" xmlns="http://www.w3.org/2000/svg"><title>Logo</title><g fill="none" fill-rule="evenodd"><path d="M30.868 35.77c-.005-.136-.007-.272-.016-.406-.014-.22-.038-.436-.06-.654-.014-.13-.024-.26-.04-.39-.03-.22-.067-.437-.104-.654-.02-.12-.037-.242-.06-.36-.044-.226-.098-.446-.15-.666-.027-.107-.05-.216-.077-.32-.06-.233-.132-.46-.204-.688-.03-.088-.053-.18-.082-.27-.083-.24-.176-.478-.27-.715-.028-.068-.05-.14-.08-.206-.108-.255-.226-.505-.347-.753-.02-.045-.04-.09-.063-.134-.138-.272-.285-.538-.44-.8l-.03-.05c-.64-1.064-1.428-2.027-2.353-2.876-1.02-.938-2.21-1.735-3.566-2.357-.093-.043-.186-.08-.28-.12-3.394-1.48-6.648-1.483-6.988-1.483h-.035C12 21.85 8.53 19.692 8.53 15.663c0-4.53 3.284-6.76 7.128-6.76h.005c3.684 0 6.812 1.794 6.983 5.792V2.678l.003.004v-.457c-2.073-.953-4.44-1.476-6.99-1.477C7.764.75.36 6.396.36 15.664c0 4.244 1.547 7.697 4.384 10.172 1.03.9 2.223 1.672 3.582 2.303.277.124.552.237.827.344.083.033.165.063.247.093.166.063.333.12.5.177.126.043.253.087.377.126.215.068.43.13.645.19l.345.088c.225.056.45.112.677.16h.01c1.205.25 2.424.377 3.7.424h.013c.207-.008.414-.014.62-.018 2.226-.05 4.37.12 6.36.628 3.252.833 6.082 2.582 8.135 5.797l.097.164.003-.165c-.002-.128-.006-.255-.012-.38" fill="#C7C7C7"/><path d="M30.888 36.313l-.105-.16c-2.054-3.216-4.883-4.966-8.135-5.798-1.99-.51-4.135-.678-6.36-.63-.288.016-.5.02-.62.02h-.01-.033.034c3.284.14 7.127 2.65 7.127 6.76 0 .157-.014.308-.025.46-.01.114-.015.227-.03.338-.022.19-.056.373-.093.553l-.006.026c-.584 2.73-2.837 4.315-5.472 4.76-.053.01-.108.022-.163.03-.1.016-.2.026-.302.037-.14.016-.278.033-.418.043-.057.005-.116.004-.173.008-.15.008-.298.018-.448.018H15.588c-.152 0-.3-.01-.45-.017-.056-.003-.115-.002-.172-.007-.14-.01-.28-.027-.418-.044-.1-.012-.202-.022-.3-.038-.057-.008-.11-.02-.165-.03-2.634-.445-4.887-2.03-5.47-4.76-.003-.008-.004-.018-.006-.026-.04-.18-.072-.363-.095-.553-.014-.11-.02-.225-.03-.34-.01-.15-.025-.3-.025-.457 0-4.112 3.844-6.62 7.13-6.76h.034c-.33 0-1.77-.016-3.67-.424l-.01-.003c-.22-.048-.445-.1-.677-.16-.115-.028-.23-.057-.345-.09-.21-.056-.426-.12-.644-.187-.127-.04-.253-.084-.378-.126-.166-.056-.332-.115-.5-.177-.083-.03-.164-.06-.247-.092-.275-.108-.553-.22-.832-.345-1.356-.63-2.55-1.404-3.58-2.3C1.877 28.478.355 32.244.355 36.505c0 .07.004.14.005.21 0 .128.005.254.01.38.003.125.006.25.013.373.008.14.02.28.032.42.01.13.02.264.033.393.024.228.052.452.086.674l.01.072c.736 4.752 3.553 8.16 7.276 10.08 2.275 1.133 4.938 1.747 7.804 1.822 2.866-.075 5.53-.69 7.804-1.82 3.723-1.922 6.54-5.33 7.276-10.083l.01-.073c.033-.222.062-.446.086-.674.014-.13.023-.262.033-.393.01-.14.024-.28.032-.42.007-.124.01-.25.014-.374l.01-.38.003-.21c0-.065-.004-.128-.005-.193" fill="#000"/><path d="M22.648 14.787v-.014H22.638v1.007c-.058 3.963-3.433 6.086-7.022 6.1l.038.002c.34 0 3.59.004 6.983 1.48.094.04.19.078.284.123 1.355.62 2.542 1.418 3.563 2.355.925.85 1.713 1.813 2.352 2.876.01.017.017.036.028.053.155.26.303.526.44.798.022.043.042.09.063.134.124.247.242.497.348.754.03.067.053.138.08.206.095.236.187.474.27.716.03.09.054.18.082.27.073.226.144.454.206.686.027.105.05.213.076.32.052.22.106.44.15.666.023.12.04.24.06.36.037.218.075.435.104.656.017.128.026.26.04.39.023.217.046.432.06.652.01.135.01.27.017.406.005.126.013.252.016.38h.005V14.772c0-.082-.007-.162-.01-.243-.007-.222-.017-.44-.033-.657-.01-.124-.022-.246-.035-.37-.02-.214-.047-.426-.078-.636-.014-.092-.025-.183-.04-.274-.05-.3-.106-.596-.173-.888l-.038-.154c-.065-.26-.136-.52-.214-.778l-.045-.15c-1.133-3.577-3.638-6.39-6.953-8.078-.184-.094-.37-.188-.558-.275l-.068-.03v12.487c0 .014.003.03.005.046" fill="#000"/><path d="M119.182 39.214c.754.683 1.13 1.633 1.13 2.85 0 1.216-.365 2.178-1.096 2.887-.73.71-1.85 1.064-3.358 1.064h-2.597V38.19h2.687c1.403 0 2.482.342 3.235 1.024zm-.2 2.883c0-1.79-1.027-2.687-3.08-2.687h-1.32v5.362h1.466c.948 0 1.674-.226 2.177-.677.504-.452.756-1.118.756-1.998zm6.648-2.888c-.776 0-1.43.275-1.965.827-.533.552-.8 1.222-.8 2.01 0 .787.267 1.456.8 2.01.534.55 1.19.827 1.965.827.776 0 1.43-.276 1.964-.828.534-.553.8-1.222.8-2.01 0-.787-.266-1.457-.8-2.01-.533-.55-1.188-.827-1.964-.827zm0 6.883c-1.164 0-2.142-.386-2.933-1.16-.79-.77-1.186-1.734-1.186-2.887s.396-2.115 1.187-2.887c.79-.774 1.77-1.16 2.933-1.16 1.164 0 2.14.386 2.932 1.16.79.77 1.187 1.733 1.187 2.886s-.397 2.116-1.188 2.888c-.79.773-1.768 1.16-2.932 1.16zm9.357-1.276c.456 0 .847-.077 1.176-.23.328-.153.67-.397 1.03-.733l.85.873c-.828.918-1.834 1.377-3.016 1.377-1.183 0-2.165-.38-2.944-1.142-.78-.76-1.17-1.723-1.17-2.888 0-1.164.397-2.134 1.192-2.91.795-.776 1.798-1.164 3.01-1.164 1.214 0 2.227.448 3.04 1.343l-.84.918c-.373-.357-.725-.607-1.057-.75-.332-.14-.722-.212-1.17-.212-.79 0-1.455.256-1.992.767-.538.51-.806 1.164-.806 1.96 0 .794.267 1.458.8 1.99.534.535 1.166.802 1.897.802zm6.09-5.362c-.247.157-.37.394-.37.71 0 .318.123.56.37.728.246.168.77.35 1.572.543.8.194 1.406.467 1.813.817.406.35.61.868.61 1.55 0 .684-.258 1.238-.773 1.663-.515.425-1.19.638-2.026.638-1.224 0-2.31-.422-3.257-1.265l.828-.997c.79.686 1.612 1.03 2.463 1.03.425 0 .763-.092 1.013-.275.25-.182.376-.425.376-.727 0-.3-.118-.536-.353-.704-.235-.168-.64-.32-1.214-.46-.576-.137-1.012-.264-1.31-.38-.3-.115-.564-.267-.796-.453-.462-.35-.694-.888-.694-1.612 0-.723.263-1.28.79-1.672.526-.392 1.177-.588 1.953-.588.5 0 .996.082 1.488.246.494.164.92.396 1.277.694l-.705.996c-.23-.208-.544-.38-.94-.514-.395-.135-.785-.202-1.17-.202-.384 0-.7.078-.945.235zM43 30.973c0-.17.085-.402.255-.694.17-.294.383-.583.638-.87.255-.287.508-.535.758-.742.25-.207.44-.31.567-.31.15 0 .372.108.67.326.297.218.646.465 1.044.742.4.276.863.523 1.39.74.525.22 1.08.328 1.666.328.584 0 1.023-.143 1.315-.43.294-.288.44-.67.44-1.15 0-.307-.096-.573-.287-.796-.192-.224-.447-.423-.766-.598-.32-.176-.69-.335-1.116-.48-.424-.142-.866-.3-1.323-.47-.563-.19-1.122-.414-1.674-.67-.553-.254-1.048-.56-1.484-.916-.437-.356-.798-.782-1.085-1.276-.287-.494-.43-1.087-.43-1.778 0-.808.17-1.545.51-2.21.34-.664.816-1.235 1.427-1.714.61-.478 1.345-.842 2.2-1.092.857-.25 1.8-.375 2.832-.375.914 0 1.71.08 2.384.246.675.165 1.24.367 1.7.606.456.24.793.484 1.01.734.22.25.328.47.328.662 0 .17-.087.404-.263.702-.175.297-.377.587-.606.87-.228.28-.473.525-.734.732-.26.208-.47.31-.63.31-.106 0-.263-.086-.47-.262-.207-.175-.462-.372-.766-.59-.303-.218-.65-.412-1.044-.582-.394-.17-.84-.255-1.34-.255-.542 0-.978.146-1.308.438-.33.294-.494.658-.494 1.094 0 .287.078.53.232.734.154.202.356.38.606.534.25.154.545.298.885.43.34.133.707.264 1.1.39.586.193 1.2.41 1.843.655.643.245 1.23.55 1.762.917s.968.824 1.308 1.372c.34.547.51 1.23.51 2.05 0 .828-.17 1.58-.51 2.256-.34.675-.805 1.257-1.395 1.746-.59.49-1.29.864-2.105 1.125-.813.26-1.71.39-2.687.39-.957 0-1.855-.12-2.695-.358-.84-.24-1.57-.516-2.193-.83-.622-.313-1.106-.627-1.452-.94-.345-.314-.518-.562-.518-.742zm16.252-3.334v-9.985c0-.212.16-.396.478-.55.32-.154.968-.23 1.946-.23 1 0 1.653.073 1.962.222.308.15.462.335.462.558v9.075c0 1.202.23 2.052.686 2.552.457.5 1.074.75 1.85.75.744 0 1.366-.234 1.866-.702.5-.468.75-1.074.75-1.818v-9.857c0-.212.156-.396.47-.55.314-.154.965-.23 1.954-.23 1 0 1.65.073 1.954.222.303.15.454.335.454.558v9.89c0 .764.207 1.37.622 1.817.415.446.973.67 1.675.67 1.064 0 1.856-.524 2.377-1.57.52-1.05.782-2.52.782-4.41 0-.98-.07-1.827-.21-2.545-.137-.718-.288-1.334-.453-1.85-.165-.516-.32-.93-.463-1.244-.143-.314-.215-.556-.215-.726 0-.244.174-.44.525-.59.35-.15.82-.223 1.404-.223.956 0 1.708.146 2.255.44.548.29.917.666 1.11 1.123.626 1.542.94 3.285.94 5.23 0 1.394-.19 2.71-.566 3.948-.38 1.24-.926 2.32-1.644 3.246-.718.926-1.606 1.654-2.663 2.186-1.058.532-2.273.797-3.645.797-.872 0-1.64-.106-2.304-.32-.665-.21-1.215-.45-1.65-.716-.543-.31-1-.67-1.373-1.085-.084.085-.262.245-.533.48-.27.233-.63.474-1.076.724-.446.25-.975.465-1.586.646-.612.18-1.3.27-2.066.27-1.85 0-3.325-.52-4.426-1.562-1.1-1.042-1.65-2.59-1.65-4.64zm27.176 1.403c0-.936.157-1.736.47-2.4.315-.665.782-1.237 1.404-1.715.622-.478 1.39-.88 2.305-1.204.914-.324 1.956-.63 3.126-.917.787-.17 1.377-.343 1.77-.518.394-.177.59-.382.59-.616 0-.478-.218-.866-.654-1.164-.436-.297-1.112-.446-2.026-.446-.627 0-1.225.077-1.794.23-.57.155-1.077.33-1.523.527-.447.198-.822.37-1.125.52-.303.148-.523.223-.662.223-.287 0-.425-.16-.414-.48 0-.264.053-.647.16-1.147.106-.5.28-1.02.526-1.563.085-.17.284-.367.598-.59.313-.223.717-.425 1.212-.606.494-.18 1.055-.332 1.682-.455.628-.122 1.303-.183 2.026-.183 2.51 0 4.285.544 5.327 1.634 1.042 1.09 1.563 2.735 1.563 4.936v5.933c0 .5.114.858.343 1.076.228.217.54.326.933.326h.653c.308 0 .462.144.462.43 0 .192-.104.458-.31.798-.208.34-.472.668-.79.98-.32.315-.678.59-1.077.83-.4.24-.795.36-1.188.36-.5 0-.936-.08-1.308-.24-.373-.16-.703-.35-.99-.574-.33-.245-.61-.526-.845-.845-.606.436-1.313.82-2.12 1.156-.81.336-1.766.503-2.872.503-.787 0-1.513-.1-2.177-.303-.665-.202-1.24-.51-1.73-.925-.49-.414-.87-.922-1.14-1.523-.272-.6-.408-1.284-.408-2.05zm4.705-.606c0 .7.24 1.23.718 1.587.48.356 1.096.534 1.85.534.724 0 1.314-.176 1.77-.526.46-.35.687-.68.687-.99V25.55c0-.234-.11-.35-.335-.35h-.032c-.478 0-1.074.16-1.786.478-.35.127-.694.268-1.03.422-.334.154-.64.34-.916.558-.276.218-.5.476-.67.774-.17.298-.255.633-.255 1.005zm14.354-9.554c0-.19.146-.417.44-.677.29-.26.64-.516 1.043-.766.404-.25.814-.462 1.228-.638.415-.175.755-.263 1.02-.263.437 0 .77.135.998.406.23.27.46.656.694 1.156l.19.4c.267-.214.602-.437 1.006-.67.404-.235.845-.448 1.324-.64.478-.19.994-.347 1.547-.47.553-.122 1.116-.183 1.69-.183.723 0 1.382.103 1.978.31.595.207 1.11.502 1.547.885.436.383.78.85 1.03 1.404.248.552.373 1.168.373 1.85v8.053c0 .5.115.858.343 1.076.23.217.53.326.9.326h.687c.298 0 .447.133.447.4 0 .212-.104.483-.31.812-.21.33-.474.657-.8.98-.323.326-.687.607-1.09.847-.405.24-.804.358-1.197.358-1.223 0-2.164-.343-2.823-1.028-.66-.686-.99-1.635-.99-2.847V22.52c0-.787-.196-1.367-.59-1.74-.393-.37-.95-.557-1.674-.557-.393 0-.78.083-1.156.247-.378.165-.726.367-1.045.606-.32.24-.574.49-.765.75-.192.26-.287.492-.287.694v10.223c0 .19-.154.37-.463.534-.308.165-.962.247-1.962.247-.978 0-1.626-.082-1.945-.247-.32-.165-.48-.343-.48-.534V21.308c0-.35-.047-.652-.142-.9-.096-.25-.197-.464-.303-.64-.107-.175-.21-.332-.31-.47-.102-.138-.153-.276-.153-.415zm21.164 13.86V10.797c0-.212.153-.398.456-.558.303-.16.954-.24 1.953-.24.978 0 1.626.077 1.945.23.32.155.48.344.48.567v12.01c.54-.17 1.067-.44 1.578-.814.51-.372.988-.802 1.435-1.29.447-.49.85-1.01 1.212-1.564s.675-1.118.94-1.692c.086-.17.17-.308.256-.415.085-.106.23-.16.43-.16h3.286c.372 0 .558.15.558.447 0 .213-.095.532-.287.957-.244.5-.534 1.032-.87 1.595-.334.564-.703 1.125-1.107 1.683s-.846 1.092-1.324 1.603c-.478.51-.978.94-1.5 1.292.628.372 1.202.933 1.723 1.682.52.75 1.154 1.778 1.898 3.086.31.52.593.87.853 1.045.26.175.62.263 1.077.263h.686c.286 0 .43.138.43.415 0 .17-.12.42-.36.75s-.544.652-.916.965c-.373.314-.777.59-1.213.83-.435.24-.85.358-1.243.358-.627 0-1.16-.13-1.594-.39-.436-.26-.798-.63-1.085-1.11-1.042-1.85-1.837-3.22-2.384-4.114-.548-.894-.992-1.415-1.332-1.564-.064.022-.157.048-.28.08-.12.032-.25.07-.382.112-.133.042-.247.085-.343.127l-.143.064v5.693c0 .19-.16.37-.48.534-.318.165-.966.247-1.945.247-1 0-1.65-.082-1.954-.247-.303-.165-.455-.343-.455-.534zm18.422-4.115V17.655c0-.212.15-.396.455-.55.303-.154.954-.23 1.953-.23.978 0 1.627.073 1.946.222.32.15.478.335.478.558v9.92c0 .787.197 1.393.59 1.82.394.424.968.637 1.723.637.393 0 .766-.067 1.116-.2.35-.133.662-.303.933-.51.272-.207.49-.436.654-.686.165-.25.248-.492.248-.726V17.655c0-.212.15-.396.454-.55.303-.154.954-.23 1.954-.23.978 0 1.627.073 1.946.222.32.15.478.335.478.558v16.81c0 .915-.165 1.792-.494 2.632-.33.84-.814 1.582-1.452 2.225s-1.42 1.156-2.344 1.54c-.925.382-1.988.573-3.19.573-.67 0-1.316-.056-1.938-.167-.622-.112-1.185-.256-1.69-.43-.505-.177-.925-.368-1.26-.575-.335-.208-.535-.396-.598-.566-.213-.5-.37-.995-.47-1.484-.102-.49-.152-.887-.152-1.196 0-.33.164-.494.494-.494.128 0 .327.06.598.183.27.122.604.26.997.415.394.155.846.29 1.357.408.51.116 1.08.175 1.706.175 1.106 0 1.983-.276 2.632-.83.648-.552.973-1.42.973-2.6v-2.056c-.15.106-.367.252-.654.438-.287.186-.628.367-1.02.542-.394.176-.846.327-1.357.455-.51.128-1.068.19-1.674.19-.766 0-1.476-.118-2.13-.357-.653-.24-1.22-.583-1.698-1.03-.48-.446-.86-.988-1.14-1.626-.282-.64-.423-1.373-.423-2.202z" fill="#2E2E2E"/></g></svg>